<svg xmlns="http://www.w3.org/2000/svg" height="512" width="512"><path d="M255.84 8.52c-91.343 0-164.87 76.63-164.87 171.802v151.033c0 95.172 73.527 171.802 164.87 171.802 91.34 0 164.867-76.63 164.867-171.802V180.322c0-95.17-73.526-171.8-164.868-171.8z" fill="#fff"/><path d="M255.84 8.52c-91.343 0-164.87 76.63-164.87 171.802v151.033c0 95.172 73.527 171.802 164.87 171.802 91.34 0 164.867-76.63 164.867-171.802V180.322c0-95.17-73.526-171.8-164.868-171.8zm-14.555 47.347l24.83 24.83 82.448 82.417 10.275 10.275-10.275 10.304-71.706 71.707 71.77 72.675 10.15 10.275-10.214 10.213-82.45 82.45-24.828 24.798V290.944l-57.62 57.62-20.55-20.55 72.736-72.767-74.14-75.08 20.675-20.424 58.9 59.652V55.866zm29.076 70.176v94.692l47.348-47.346-47.346-47.348zm0 164.15v95.41l47.41-47.408-47.41-48.002z" fill="#ff1493"/></svg>